<mxfile host="Electron" agent="Mozilla/5.0 (X11; Linux x86_64) AppleWebKit/537.36 (KHTML, like Gecko) draw.io/24.7.17 Chrome/128.0.6613.36 Electron/32.0.1 Safari/537.36" version="24.7.17">
  <diagram name="Страница — 1" id="p50MMosPqnn7whgFtkuO">
    <mxGraphModel dx="1185" dy="770" grid="1" gridSize="10" guides="1" tooltips="1" connect="1" arrows="1" fold="1" page="1" pageScale="1" pageWidth="827" pageHeight="1169" math="0" shadow="0">
      <root>
        <mxCell id="0" />
        <mxCell id="1" parent="0" />
        <mxCell id="U8kr31JjeDutOu_ES1rp-2" value="" style="rounded=0;whiteSpace=wrap;html=1;fillColor=#e5f0ff;strokeColor=#6c8ebf;" vertex="1" parent="1">
          <mxGeometry x="260" y="420" width="460" height="400" as="geometry" />
        </mxCell>
        <mxCell id="U8kr31JjeDutOu_ES1rp-16" style="edgeStyle=orthogonalEdgeStyle;rounded=0;orthogonalLoop=1;jettySize=auto;html=1;curved=1;endArrow=block;endFill=0;" edge="1" parent="1" source="U8kr31JjeDutOu_ES1rp-3">
          <mxGeometry relative="1" as="geometry">
            <mxPoint x="180" y="585" as="targetPoint" />
          </mxGeometry>
        </mxCell>
        <mxCell id="U8kr31JjeDutOu_ES1rp-23" style="edgeStyle=orthogonalEdgeStyle;rounded=0;orthogonalLoop=1;jettySize=auto;html=1;curved=1;endArrow=block;endFill=0;" edge="1" parent="1" source="U8kr31JjeDutOu_ES1rp-3" target="U8kr31JjeDutOu_ES1rp-10">
          <mxGeometry relative="1" as="geometry" />
        </mxCell>
        <mxCell id="U8kr31JjeDutOu_ES1rp-24" style="edgeStyle=orthogonalEdgeStyle;rounded=0;orthogonalLoop=1;jettySize=auto;html=1;curved=1;endArrow=block;endFill=0;" edge="1" parent="1" source="U8kr31JjeDutOu_ES1rp-3" target="U8kr31JjeDutOu_ES1rp-11">
          <mxGeometry relative="1" as="geometry" />
        </mxCell>
        <mxCell id="U8kr31JjeDutOu_ES1rp-3" value="Admin" style="shape=umlActor;verticalLabelPosition=bottom;verticalAlign=top;html=1;outlineConnect=0;" vertex="1" parent="1">
          <mxGeometry x="170" y="680" width="30" height="60" as="geometry" />
        </mxCell>
        <mxCell id="U8kr31JjeDutOu_ES1rp-18" style="edgeStyle=orthogonalEdgeStyle;rounded=0;orthogonalLoop=1;jettySize=auto;html=1;curved=1;endArrow=block;endFill=0;" edge="1" parent="1" source="U8kr31JjeDutOu_ES1rp-4" target="U8kr31JjeDutOu_ES1rp-8">
          <mxGeometry relative="1" as="geometry" />
        </mxCell>
        <mxCell id="U8kr31JjeDutOu_ES1rp-19" style="edgeStyle=orthogonalEdgeStyle;rounded=0;orthogonalLoop=1;jettySize=auto;html=1;curved=1;endArrow=block;endFill=0;" edge="1" parent="1" source="U8kr31JjeDutOu_ES1rp-4" target="U8kr31JjeDutOu_ES1rp-12">
          <mxGeometry relative="1" as="geometry" />
        </mxCell>
        <mxCell id="U8kr31JjeDutOu_ES1rp-4" value="User" style="shape=umlActor;verticalLabelPosition=bottom;verticalAlign=top;html=1;outlineConnect=0;" vertex="1" parent="1">
          <mxGeometry x="160" y="495" width="30" height="60" as="geometry" />
        </mxCell>
        <mxCell id="U8kr31JjeDutOu_ES1rp-7" value="Verification of credentials" style="ellipse;whiteSpace=wrap;html=1;" vertex="1" parent="1">
          <mxGeometry x="530" y="495" width="120" height="60" as="geometry" />
        </mxCell>
        <mxCell id="U8kr31JjeDutOu_ES1rp-47" style="edgeStyle=orthogonalEdgeStyle;rounded=0;orthogonalLoop=1;jettySize=auto;html=1;curved=1;dashed=1;" edge="1" parent="1" source="U8kr31JjeDutOu_ES1rp-8" target="U8kr31JjeDutOu_ES1rp-7">
          <mxGeometry relative="1" as="geometry" />
        </mxCell>
        <mxCell id="U8kr31JjeDutOu_ES1rp-49" value="&amp;lt;&amp;lt;include&amp;gt;&amp;gt;" style="edgeLabel;html=1;align=center;verticalAlign=middle;resizable=0;points=[];" vertex="1" connectable="0" parent="U8kr31JjeDutOu_ES1rp-47">
          <mxGeometry x="-0.4254" y="-7" relative="1" as="geometry">
            <mxPoint as="offset" />
          </mxGeometry>
        </mxCell>
        <mxCell id="U8kr31JjeDutOu_ES1rp-8" value="Reset login/password" style="ellipse;whiteSpace=wrap;html=1;" vertex="1" parent="1">
          <mxGeometry x="310" y="455" width="120" height="60" as="geometry" />
        </mxCell>
        <mxCell id="U8kr31JjeDutOu_ES1rp-10" value="Unlocking the user" style="ellipse;whiteSpace=wrap;html=1;" vertex="1" parent="1">
          <mxGeometry x="310" y="740" width="120" height="60" as="geometry" />
        </mxCell>
        <mxCell id="U8kr31JjeDutOu_ES1rp-22" style="edgeStyle=orthogonalEdgeStyle;rounded=0;orthogonalLoop=1;jettySize=auto;html=1;dashed=1;curved=1;" edge="1" parent="1" source="U8kr31JjeDutOu_ES1rp-11" target="U8kr31JjeDutOu_ES1rp-12">
          <mxGeometry relative="1" as="geometry" />
        </mxCell>
        <mxCell id="U8kr31JjeDutOu_ES1rp-25" value="&amp;lt;&amp;lt;extend&amp;gt;&amp;gt;" style="edgeLabel;html=1;align=center;verticalAlign=middle;resizable=0;points=[];" vertex="1" connectable="0" parent="U8kr31JjeDutOu_ES1rp-22">
          <mxGeometry x="0.4726" y="-24" relative="1" as="geometry">
            <mxPoint as="offset" />
          </mxGeometry>
        </mxCell>
        <mxCell id="U8kr31JjeDutOu_ES1rp-11" value="User Lockout" style="ellipse;whiteSpace=wrap;html=1;" vertex="1" parent="1">
          <mxGeometry x="550" y="640" width="120" height="60" as="geometry" />
        </mxCell>
        <mxCell id="U8kr31JjeDutOu_ES1rp-48" style="edgeStyle=orthogonalEdgeStyle;rounded=0;orthogonalLoop=1;jettySize=auto;html=1;curved=1;dashed=1;" edge="1" parent="1" source="U8kr31JjeDutOu_ES1rp-12" target="U8kr31JjeDutOu_ES1rp-7">
          <mxGeometry relative="1" as="geometry" />
        </mxCell>
        <mxCell id="U8kr31JjeDutOu_ES1rp-50" value="&amp;lt;&amp;lt;include&amp;gt;&amp;gt;" style="edgeLabel;html=1;align=center;verticalAlign=middle;resizable=0;points=[];" vertex="1" connectable="0" parent="U8kr31JjeDutOu_ES1rp-48">
          <mxGeometry x="-0.1387" y="3" relative="1" as="geometry">
            <mxPoint as="offset" />
          </mxGeometry>
        </mxCell>
        <mxCell id="U8kr31JjeDutOu_ES1rp-12" value="Authorisation error" style="ellipse;whiteSpace=wrap;html=1;" vertex="1" parent="1">
          <mxGeometry x="310" y="540" width="120" height="60" as="geometry" />
        </mxCell>
        <mxCell id="U8kr31JjeDutOu_ES1rp-27" value="&lt;b&gt;ASDs&lt;/b&gt;" style="text;html=1;align=center;verticalAlign=middle;resizable=0;points=[];autosize=1;strokeColor=none;fillColor=none;" vertex="1" parent="1">
          <mxGeometry x="465" y="420" width="50" height="26" as="geometry" />
        </mxCell>
        <mxCell id="U8kr31JjeDutOu_ES1rp-28" value="" style="rounded=0;whiteSpace=wrap;html=1;fillColor=#e5f0ff;strokeColor=#6c8ebf;" vertex="1" parent="1">
          <mxGeometry x="260" y="959" width="460" height="210" as="geometry" />
        </mxCell>
        <mxCell id="U8kr31JjeDutOu_ES1rp-33" style="edgeStyle=orthogonalEdgeStyle;rounded=0;orthogonalLoop=1;jettySize=auto;html=1;curved=1;endArrow=block;endFill=0;" edge="1" parent="1" source="U8kr31JjeDutOu_ES1rp-35" target="U8kr31JjeDutOu_ES1rp-39">
          <mxGeometry relative="1" as="geometry" />
        </mxCell>
        <mxCell id="U8kr31JjeDutOu_ES1rp-35" value="User" style="shape=umlActor;verticalLabelPosition=bottom;verticalAlign=top;html=1;outlineConnect=0;" vertex="1" parent="1">
          <mxGeometry x="160" y="1034" width="30" height="60" as="geometry" />
        </mxCell>
        <mxCell id="U8kr31JjeDutOu_ES1rp-55" style="edgeStyle=orthogonalEdgeStyle;rounded=0;orthogonalLoop=1;jettySize=auto;html=1;entryX=0;entryY=0.5;entryDx=0;entryDy=0;dashed=1;curved=1;" edge="1" parent="1" source="U8kr31JjeDutOu_ES1rp-39" target="U8kr31JjeDutOu_ES1rp-52">
          <mxGeometry relative="1" as="geometry" />
        </mxCell>
        <mxCell id="U8kr31JjeDutOu_ES1rp-57" value="&amp;lt;&amp;lt;extend&amp;gt;&amp;gt;" style="edgeLabel;html=1;align=center;verticalAlign=middle;resizable=0;points=[];" vertex="1" connectable="0" parent="U8kr31JjeDutOu_ES1rp-55">
          <mxGeometry x="-0.0128" y="-2" relative="1" as="geometry">
            <mxPoint as="offset" />
          </mxGeometry>
        </mxCell>
        <mxCell id="U8kr31JjeDutOu_ES1rp-39" value="Create backup" style="ellipse;whiteSpace=wrap;html=1;" vertex="1" parent="1">
          <mxGeometry x="300" y="994" width="120" height="60" as="geometry" />
        </mxCell>
        <mxCell id="U8kr31JjeDutOu_ES1rp-45" value="&lt;b&gt;ASDs&lt;/b&gt;" style="text;html=1;align=center;verticalAlign=middle;resizable=0;points=[];autosize=1;strokeColor=none;fillColor=none;" vertex="1" parent="1">
          <mxGeometry x="465" y="959" width="50" height="26" as="geometry" />
        </mxCell>
        <mxCell id="U8kr31JjeDutOu_ES1rp-54" style="edgeStyle=orthogonalEdgeStyle;rounded=0;orthogonalLoop=1;jettySize=auto;html=1;curved=1;dashed=1;" edge="1" parent="1" source="U8kr31JjeDutOu_ES1rp-51" target="U8kr31JjeDutOu_ES1rp-39">
          <mxGeometry relative="1" as="geometry" />
        </mxCell>
        <mxCell id="U8kr31JjeDutOu_ES1rp-56" value="&amp;lt;&amp;lt;include&amp;gt;&amp;gt;" style="edgeLabel;html=1;align=center;verticalAlign=middle;resizable=0;points=[];" vertex="1" connectable="0" parent="U8kr31JjeDutOu_ES1rp-54">
          <mxGeometry x="-0.0376" relative="1" as="geometry">
            <mxPoint as="offset" />
          </mxGeometry>
        </mxCell>
        <mxCell id="U8kr31JjeDutOu_ES1rp-51" value="Error handler" style="ellipse;whiteSpace=wrap;html=1;" vertex="1" parent="1">
          <mxGeometry x="550" y="994" width="120" height="60" as="geometry" />
        </mxCell>
        <mxCell id="U8kr31JjeDutOu_ES1rp-52" value="Rollback backup" style="ellipse;whiteSpace=wrap;html=1;" vertex="1" parent="1">
          <mxGeometry x="490" y="1089" width="120" height="60" as="geometry" />
        </mxCell>
        <mxCell id="U8kr31JjeDutOu_ES1rp-58" value="" style="rounded=0;whiteSpace=wrap;html=1;fillColor=#e5f0ff;strokeColor=#6c8ebf;" vertex="1" parent="1">
          <mxGeometry x="260" y="1200" width="460" height="210" as="geometry" />
        </mxCell>
        <mxCell id="U8kr31JjeDutOu_ES1rp-59" style="edgeStyle=orthogonalEdgeStyle;rounded=0;orthogonalLoop=1;jettySize=auto;html=1;curved=1;endArrow=block;endFill=0;" edge="1" parent="1" source="U8kr31JjeDutOu_ES1rp-60" target="U8kr31JjeDutOu_ES1rp-63">
          <mxGeometry relative="1" as="geometry" />
        </mxCell>
        <mxCell id="U8kr31JjeDutOu_ES1rp-60" value="User" style="shape=umlActor;verticalLabelPosition=bottom;verticalAlign=top;html=1;outlineConnect=0;" vertex="1" parent="1">
          <mxGeometry x="160" y="1275" width="30" height="60" as="geometry" />
        </mxCell>
        <mxCell id="U8kr31JjeDutOu_ES1rp-61" style="edgeStyle=orthogonalEdgeStyle;rounded=0;orthogonalLoop=1;jettySize=auto;html=1;entryX=0;entryY=0.5;entryDx=0;entryDy=0;dashed=1;curved=1;" edge="1" parent="1" source="U8kr31JjeDutOu_ES1rp-63" target="U8kr31JjeDutOu_ES1rp-68">
          <mxGeometry relative="1" as="geometry" />
        </mxCell>
        <mxCell id="U8kr31JjeDutOu_ES1rp-62" value="&amp;lt;&amp;lt;extend&amp;gt;&amp;gt;" style="edgeLabel;html=1;align=center;verticalAlign=middle;resizable=0;points=[];" vertex="1" connectable="0" parent="U8kr31JjeDutOu_ES1rp-61">
          <mxGeometry x="-0.0128" y="-2" relative="1" as="geometry">
            <mxPoint as="offset" />
          </mxGeometry>
        </mxCell>
        <mxCell id="U8kr31JjeDutOu_ES1rp-63" value="Installing the application version" style="ellipse;whiteSpace=wrap;html=1;" vertex="1" parent="1">
          <mxGeometry x="300" y="1235" width="120" height="60" as="geometry" />
        </mxCell>
        <mxCell id="U8kr31JjeDutOu_ES1rp-64" value="&lt;b&gt;ASDs&lt;/b&gt;" style="text;html=1;align=center;verticalAlign=middle;resizable=0;points=[];autosize=1;strokeColor=none;fillColor=none;" vertex="1" parent="1">
          <mxGeometry x="465" y="1200" width="50" height="26" as="geometry" />
        </mxCell>
        <mxCell id="U8kr31JjeDutOu_ES1rp-65" style="edgeStyle=orthogonalEdgeStyle;rounded=0;orthogonalLoop=1;jettySize=auto;html=1;curved=1;dashed=1;" edge="1" parent="1" source="U8kr31JjeDutOu_ES1rp-67" target="U8kr31JjeDutOu_ES1rp-63">
          <mxGeometry relative="1" as="geometry" />
        </mxCell>
        <mxCell id="U8kr31JjeDutOu_ES1rp-66" value="&amp;lt;&amp;lt;include&amp;gt;&amp;gt;" style="edgeLabel;html=1;align=center;verticalAlign=middle;resizable=0;points=[];" vertex="1" connectable="0" parent="U8kr31JjeDutOu_ES1rp-65">
          <mxGeometry x="-0.0376" relative="1" as="geometry">
            <mxPoint as="offset" />
          </mxGeometry>
        </mxCell>
        <mxCell id="U8kr31JjeDutOu_ES1rp-67" value="Error handler" style="ellipse;whiteSpace=wrap;html=1;" vertex="1" parent="1">
          <mxGeometry x="550" y="1235" width="120" height="60" as="geometry" />
        </mxCell>
        <mxCell id="U8kr31JjeDutOu_ES1rp-68" value="Rollback version" style="ellipse;whiteSpace=wrap;html=1;" vertex="1" parent="1">
          <mxGeometry x="490" y="1330" width="120" height="60" as="geometry" />
        </mxCell>
      </root>
    </mxGraphModel>
  </diagram>
</mxfile>
